<svg xmlns="http://www.w3.org/2000/svg" width="1200" height="720" viewBox="0 0 1200 720"><rect width="1200" height="720" fill="#0d1117"/><text x="60" y="60" fill="#f0f6fc" font-family="Arial" font-size="34" font-weight="700">Homelab Proxmox — Workload e Servizi</text><text x="60" y="95" fill="#8b949e" font-family="Arial" font-size="18">Linux, networking, monitoraggio, automazione, cloud e infrastruttura Windows</text><rect x="50" y="130" width="520" height="500" rx="18" fill="#161b22" stroke="#30363d"/><text x="80" y="175" fill="#f0f6fc" font-family="Arial" font-size="26" font-weight="700">Servizi Linux / rete</text><g font-family="Arial" font-size="18"><rect x="80" y="225" width="210" height="58" rx="10" fill="#1f6feb" opacity="0.22" stroke="#58a6ff"/><text x="100" y="261" fill="#f0f6fc">Pi-hole</text><rect x="315" y="225" width="210" height="58" rx="10" fill="#238636" opacity="0.22" stroke="#3fb950"/><text x="335" y="261" fill="#f0f6fc">WireGuard VPN</text><rect x="80" y="305" width="210" height="58" rx="10" fill="#8957e5" opacity="0.22" stroke="#a371f7"/><text x="100" y="341" fill="#f0f6fc">Telegram / Python</text><rect x="315" y="305" width="210" height="58" rx="10" fill="#d29922" opacity="0.22" stroke="#e3b341"/><text x="335" y="341" fill="#f0f6fc">n8n</text><rect x="80" y="385" width="210" height="58" rx="10" fill="#da3633" opacity="0.20" stroke="#f85149"/><text x="100" y="421" fill="#f0f6fc">pfSense</text><rect x="315" y="385" width="210" height="58" rx="10" fill="#1f6feb" opacity="0.22" stroke="#58a6ff"/><text x="335" y="421" fill="#f0f6fc">Zabbix</text><rect x="80" y="465" width="210" height="58" rx="10" fill="#30363d" stroke="#8b949e"/><text x="100" y="501" fill="#f0f6fc">Ubuntu</text><rect x="315" y="465" width="210" height="58" rx="10" fill="#30363d" stroke="#8b949e"/><text x="335" y="501" fill="#f0f6fc">HA test VM</text></g><rect x="610" y="130" width="540" height="220" rx="18" fill="#161b22" stroke="#30363d"/><text x="640" y="175" fill="#f0f6fc" font-family="Arial" font-size="26" font-weight="700">Windows</text><text x="640" y="225" fill="#58a6ff" font-family="Arial" font-size="22">Windows Server</text><text x="640" y="260" fill="#c9d1d9" font-family="Arial" font-size="17">Prossimo progetto: Active Directory</text><text x="640" y="300" fill="#58a6ff" font-family="Arial" font-size="22">Windows Client</text><text x="640" y="330" fill="#c9d1d9" font-family="Arial" font-size="17">Domain join, GPO, permessi</text><rect x="610" y="390" width="540" height="240" rx="18" fill="#161b22" stroke="#30363d"/><text x="640" y="435" fill="#f0f6fc" font-family="Arial" font-size="26" font-weight="700">Cloud</text><text x="640" y="485" fill="#ff9900" font-family="Arial" font-size="23" font-weight="700">AWS EC2</text><text x="640" y="525" fill="#c9d1d9" font-family="Arial" font-size="17">• Istanze Linux</text><text x="640" y="555" fill="#c9d1d9" font-family="Arial" font-size="17">• Security Groups</text><text x="640" y="585" fill="#c9d1d9" font-family="Arial" font-size="17">• Controllo traffico inbound/outbound</text><text x="60" y="685" fill="#8b949e" font-family="Arial" font-size="14">Diagramma logico: nessun IP, hostname, username, chiave o endpoint operativo è pubblicato.</text></svg>